<svg xmlns="http://www.w3.org/2000/svg" version="1.1" xmlns:xlink="http://www.w3.org/1999/xlink" width="512" height="512" x="0" y="0" viewBox="0 0 512 512" style="enable-background:new 0 0 512 512" xml:space="preserve" class="">
  <g>
    <path fill="#fc90ce" d="M491.266 338.658c6.923-22.668 10.659-46.726 10.659-71.66 0-135.311-109.691-245.002-245.002-245.002S11.921 131.687 11.921 266.998c0 24.934 3.736 48.992 10.659 71.66z" opacity="1" data-original="#fc90ce"></path>
    <path fill="#deeeff" d="M356.217 193.57c-9.765 0-17.708-7.943-17.708-17.708V62.033h-167.93c-3.589 4.383-15.971 21.992.591 38.944l17.696 93.521-17.62 56.037c-1.534 1.478-7.975 8.23-8.243 17.592-.176 6.137 2.337 12.038 7.474 17.56a24.042 24.042 0 0 0-1.732 2.204H463.86c1.405 0 2.762.2 4.064.54V193.57z" opacity="1" data-original="#deeeff"></path>
    <path fill="#bec8f7" d="M89.346 62.033c-25.002 0-45.269 20.268-45.269 45.269V288.43c1.302-.34 2.659-.54 4.065-.54H170.57c1.105-1.424 1.989-2.206 1.989-2.206-18.146-18.146 0-34.325 0-34.325l17.852-56.772-17.852-94.34c-18.739-18.739 0-38.215 0-38.215H89.346z" opacity="1" data-original="#bec8f7"></path>
    <path fill="#2a428c" d="M195.4 242.136V109.471c0-3.851-1.968-7.24-4.951-9.223H83.492c-5.969 0-10.808 4.839-10.808 10.808v129.496c0 5.969 4.839 10.808 10.808 10.808h16.952s19.12-6.994 36.203 0h35.912s9.195-3.829 21.095-3.273a10.995 10.995 0 0 0 1.746-5.951z" opacity="1" data-original="#2a428c"></path>
    <path fill="#1c2e7a" d="M297.828 100.248h-114.5c5.969 0 10.808 4.839 10.808 10.808v129.496c0 2.906-1.153 5.539-3.019 7.481 5.404-.017 11.51.803 17.645 3.327h35.912s14.85-6.494 36.203 0h16.952c5.969 0 10.808-4.839 10.808-10.808V111.056c-.001-5.969-4.84-10.808-10.809-10.808z" opacity="1" data-original="#1c2e7a"></path>
    <path fill="#3c58a0" d="M168.851 364.973a68.524 68.524 0 0 0 1.691 2.122c-1.842 2.075-5.582 7.071-5.7 13.528-.084 4.61 1.687 9.013 5.269 13.11-2.855 1.72-7.908 5.855-7.908 13.6v68.184c0 2.101.436 4.029 1.296 5.732.955 1.891 2.791 4.29 6.238 5.686-.723 1.847-1.639 5.067-1.151 8.622C195.992 506.161 225.772 512 256.923 512c39.495 0 76.802-9.351 109.838-25.953l.001-.006 65.007-47.451c20.764-21.159 37.725-46.064 49.76-73.616H168.851z" opacity="1" data-original="#3c58a0"></path>
    <path fill="#2a428c" d="m79.579 436.007 67.505 50.034-.002.005a243.583 243.583 0 0 0 23.141 10.138c-1.092-5.328 1.562-10.143 1.562-10.143-3.875-1.042-5.896-3.386-6.948-5.469-.788-1.561-1.135-3.307-1.135-5.055v-68.184c0-9.667 8.857-13.179 8.857-13.179-13.995-13.995 0-27 0-27a69.58 69.58 0 0 1-1.802-2.181H32.316c11.549 26.439 27.635 50.44 47.263 71.034z" opacity="1" data-original="#2a428c"></path>
    <path fill="#deeeff" d="M130.112 181.461c-6.79 0-12.346 5.556-12.346 12.347v2.865h18.881v-15.212z" opacity="1" data-original="#deeeff"></path>
    <path fill="#bec8f7" d="M118.295 193.888c0-6.6 5.4-12 12-12h6.351v-14.785h-36.203v29.569h17.852z" opacity="1" data-original="#bec8f7"></path>
    <path fill="#3c58a0" d="M463.859 285.685H170.475l.001.002c-3.106 3.498-11.085 14.768 0 28.511a36 36 0 0 0-2.236 2.351h309.831c.674 0 1.34.034 2.002.083V301.9c0-8.919-7.296-16.215-16.214-16.215z" opacity="1" data-original="#3c58a0"></path>
    <path fill="#2a428c" d="M172.559 314.343c-14.143-16.158 0-28.658 0-28.658H48.141c-8.918 0-16.214 7.296-16.214 16.214v14.732c.662-.05 1.328-.083 2.002-.083h136.342c1.35-1.442 2.288-2.205 2.288-2.205z" opacity="1" data-original="#2a428c"></path>
    <path fill="#bec8f7" d="M397.346 193.018v42.449c0 9.927 8.047 17.974 17.974 17.974s17.974-8.047 17.974-17.974v-42.449z" opacity="1" data-original="#bec8f7"></path>
    <path fill="#49b1f7" d="M478.115 7h-84.306c.227 2.461 1.299 4.82 3.213 7.037-3.002 3.716-11.432 16.337.513 28.782v93.385c-2.229 2.662-12.336 16.15-.504 29.147-2.494 3.259-8.647 13.188-.031 22.899-1.078 1.356-2.633 3.841-2.691 6.935l.001.037h83.805c10.693 0 19.362-8.669 19.362-19.362V26.362C497.477 15.669 488.808 7 478.115 7z" opacity="1" data-original="#49b1f7" class=""></path>
    <path fill="#1fa2ea" d="M333.164 26.362v149.499c0 10.693 8.669 19.362 19.362 19.362h43.284c.073-4.074 3.225-7 3.225-7-11.201-11.201 0-22.945 0-22.945-13.861-13.861 0-28.514 0-28.514V42.207c-14-14 0-28.207 0-28.207-2.452-2.452-3.485-4.841-3.719-7h-42.79c-10.694 0-19.362 8.669-19.362 19.362z" opacity="1" data-original="#1fa2ea"></path>
    <path fill="#2a428c" d="m396.968 165.278.063.073c-2.494 3.259-8.647 13.188-.031 22.899-1.078 1.356-2.633 3.841-2.691 6.935l.001.037h83.805c10.693 0 19.362-8.669 19.362-19.362v-10.583H396.968z" opacity="1" data-original="#2a428c"></path>
    <path fill="#1c2e7a" d="M333.164 165.278v10.583c0 10.693 8.669 19.362 19.362 19.362h43.284c.073-4.074 3.225-6.999 3.225-6.999-11.201-11.201 0-22.945 0-22.945h-65.871z" opacity="1" data-original="#1c2e7a"></path>
    <path fill="#deeeff" d="M373.05 83.057h-4.965a7 7 0 1 1 0-14h4.965a7 7 0 1 1 0 14zM373.05 56.204h-4.965a7 7 0 1 1 0-14h4.965a7 7 0 1 1 0 14zM373.05 109.908h-4.965a7 7 0 1 1 0-14h4.965a7 7 0 1 1 0 14zM373.05 136.761h-4.965a7 7 0 1 1 0-14h4.965a7 7 0 1 1 0 14z" opacity="1" data-original="#deeeff"></path>
    <path fill="#9bd8f9" d="M462.556 83.06h-65.453a7 7 0 1 1 0-14h65.453a7 7 0 1 1 0 14zM462.556 56.207h-65.453a7 7 0 1 1 0-14h65.453a7 7 0 1 1 0 14zM462.556 109.912h-65.453a7 7 0 1 1 0-14h65.453a7 7 0 1 1 0 14zM462.556 136.765h-65.453a7 7 0 1 1 0-14h65.453a7 7 0 1 1 0 14z" opacity="1" data-original="#9bd8f9"></path>
    <path fill="#3c58a0" d="M478.115 0h-82.671c-.867 1.526-1.632 3.492-1.685 5.762-.066 2.896 1.021 5.662 3.233 8.238h81.123c6.816 0 12.361 5.546 12.361 12.362v149.499c0 6.816-5.545 12.362-12.361 12.362h-81.138l.023.027c-1.078 1.356-2.633 3.841-2.691 6.935-.047 2.482.865 4.843 2.701 7.037h81.106c14.536 0 26.361-11.826 26.361-26.362V26.362C504.477 11.826 492.651 0 478.115 0z" opacity="1" data-original="#3c58a0"></path>
    <path fill="#2a428c" d="M399.035 188.224h-46.51c-6.816 0-12.361-5.546-12.361-12.362v-149.5c0-6.816 5.545-12.362 12.361-12.362h46.51c-5.717-5.717-3.743-11.092-1.838-14h-44.671c-14.536 0-26.361 11.826-26.361 26.362v149.499c0 14.536 11.825 26.362 26.361 26.362h46.51c-7.264-7.263-.001-13.999-.001-13.999z" opacity="1" data-original="#2a428c"></path>
    <path fill="#ff4155" d="M117.766 194.588h18.881v56.772h-18.881z" opacity="1" data-original="#ff4155"></path>
    <path fill="#e80054" d="M100.444 194.588h17.852v56.772h-17.852z" opacity="1" data-original="#e80054"></path>
    <path fill="#6289cc" d="M140.106 138.305h-16.869c-2.888 1.108-4.942 3.9-4.942 7.178v16.403c0 3.278 2.054 6.07 4.942 7.178h16.869a4.17 4.17 0 0 0 4.17-4.17v-22.42a4.17 4.17 0 0 0-4.17-4.169z" opacity="1" data-original="#6289cc"></path>
    <path fill="#4b6bb2" d="M118.545 161.621V145.75a7.444 7.444 0 0 1 7.444-7.444H96.984a4.17 4.17 0 0 0-4.17 4.17v22.42a4.17 4.17 0 0 0 4.17 4.17h29.006a7.446 7.446 0 0 1-7.445-7.445z" opacity="1" data-original="#4b6bb2"></path>
    <path fill="#2a428c" d="M435.844 394.154H169.449c-2.908 1.927-7.247 6.001-7.247 13.179v68.184c0 2.101.436 4.029 1.296 5.732a11.773 11.773 0 0 0 4.473 4.792h198.791c24.26-12.189 46.211-28.288 65.035-47.472l10.05-36.537c1.091-3.964-1.892-7.878-6.003-7.878z" opacity="1" data-original="#2a428c"></path>
    <path fill="#1c2e7a" d="M172.559 394.154H76.156c-4.111 0-7.094 3.914-6.003 7.878l9.324 33.899a245.775 245.775 0 0 0 67.607 50.11h24.701c-3.875-1.042-5.896-3.386-6.948-5.469-.788-1.561-1.135-3.307-1.135-5.055v-68.184c0-9.666 8.857-13.179 8.857-13.179z" opacity="1" data-original="#1c2e7a"></path>
    <path fill="#6289cc" d="M478.071 314.343H170.328c-2.955 2.853-10.033 10.819-11.061 22.52-.881 10.02 2.912 20.185 11.275 30.232l-.051.059h307.581c14.583 0 26.405-11.822 26.405-26.406 0-14.583-11.822-26.405-26.406-26.405z" opacity="1" data-original="#6289cc"></path>
    <path fill="#7aa5e2" d="M504.477 340.748c0-14.583-11.822-26.405-26.405-26.405h-71.616c-14.583 0-26.405 11.822-26.405 26.405 0 14.583 11.822 26.406 26.405 26.406h71.616c14.583 0 26.405-11.822 26.405-26.406z" opacity="1" data-original="#7aa5e2"></path>
    <path fill="#3c58a0" d="M172.559 314.343H33.929c-14.583 0-26.405 11.822-26.405 26.405 0 14.583 11.822 26.406 26.405 26.406h138.63c-26.81-31.013 0-52.811 0-52.811z" opacity="1" data-original="#3c58a0"></path>
    <path fill="#deeeff" d="M202.227 181.461c-6.791 0-12.346 5.556-12.346 12.347v2.865h18.881v-15.212z" opacity="1" data-original="#deeeff"></path>
    <path fill="#bec8f7" d="M190.41 193.888c0-6.6 5.4-12 12-12h6.351v-14.785h-36.203v29.569h17.852z" opacity="1" data-original="#bec8f7"></path>
    <path fill="#ffb332" d="M189.881 194.588h18.881v56.772h-18.881z" opacity="1" data-original="#ffb332"></path>
    <path fill="#ff9100" d="M172.559 194.588h17.852v56.772h-17.852z" opacity="1" data-original="#ff9100"></path>
    <path fill="#6289cc" d="M212.221 138.305h-16.869c-2.888 1.108-4.942 3.9-4.942 7.178v16.403c0 3.278 2.054 6.07 4.942 7.178h16.869a4.17 4.17 0 0 0 4.17-4.17v-22.42a4.17 4.17 0 0 0-4.17-4.169z" opacity="1" data-original="#6289cc"></path>
    <path fill="#4b6bb2" d="M190.66 161.621V145.75a7.444 7.444 0 0 1 7.444-7.444h-29.006a4.17 4.17 0 0 0-4.17 4.17v22.42a4.17 4.17 0 0 0 4.17 4.17h29.006a7.446 7.446 0 0 1-7.444-7.445z" opacity="1" data-original="#4b6bb2"></path>
    <path fill="#deeeff" d="M274.342 181.461c-6.791 0-12.346 5.556-12.346 12.347v2.865h18.881v-15.212z" opacity="1" data-original="#deeeff"></path>
    <path fill="#bec8f7" d="M262.525 193.888c0-6.6 5.4-12 12-12h6.351v-14.785h-36.203v29.569h17.852z" opacity="1" data-original="#bec8f7"></path>
    <path fill="#ffdd40" d="M261.995 194.588h18.881v56.772h-18.881z" opacity="1" data-original="#ffdd40"></path>
    <path fill="#ffc839" d="M244.673 194.588h17.852v56.772h-17.852z" opacity="1" data-original="#ffc839"></path>
    <path fill="#6289cc" d="M284.336 138.305h-16.869c-2.888 1.108-4.942 3.9-4.942 7.178v16.403c0 3.278 2.054 6.07 4.942 7.178h16.869a4.17 4.17 0 0 0 4.17-4.17v-22.42a4.17 4.17 0 0 0-4.17-4.169z" opacity="1" data-original="#6289cc"></path>
    <path fill="#4b6bb2" d="M262.775 161.621V145.75a7.444 7.444 0 0 1 7.444-7.444h-29.006a4.17 4.17 0 0 0-4.17 4.17v22.42a4.17 4.17 0 0 0 4.17 4.17h29.006a7.446 7.446 0 0 1-7.444-7.445z" opacity="1" data-original="#4b6bb2"></path>
  </g>
</svg>