<svg xmlns="http://www.w3.org/2000/svg" width="16" height="16" viewBox="0 0 16 16" fill="none">
  <path d="M9 15.6664C8.98333 15.6664 8.966 15.6651 8.94933 15.6624L0.282667 14.3291C0.12 14.3037 0 14.1637 0 13.9997V2.66641C0 2.51108 0.107333 2.37641 0.258667 2.34174L8.92533 0.341745C9.024 0.319745 9.12867 0.342411 9.208 0.405745C9.28733 0.468411 9.33333 0.564411 9.33333 0.666411V15.3331C9.33333 15.4304 9.29133 15.5231 9.21733 15.5857C9.156 15.6384 9.07933 15.6664 9 15.6664ZM0.666667 13.7137L8.66667 14.9444V1.08508L0.666667 2.93174V13.7137Z" fill="#F8F8F8" />
  <path d="M15.6667 14.333H9.00008C8.81608 14.333 8.66675 14.1837 8.66675 13.9997C8.66675 13.8157 8.81608 13.6664 9.00008 13.6664H15.3334V2.33305H9.00008C8.81608 2.33305 8.66675 2.18372 8.66675 1.99972C8.66675 1.81572 8.81608 1.66638 9.00008 1.66638H15.6667C15.8507 1.66638 16.0001 1.81505 16.0001 1.99972V13.9997C16.0001 14.1837 15.8507 14.333 15.6667 14.333Z" fill="#F8F8F8" />
  <path d="M6.33333 10.9998C6.22199 10.9998 6.11333 10.9444 6.05066 10.8431L2.71733 5.50976C2.61999 5.35309 2.66733 5.14776 2.82333 5.05043C2.97999 4.95243 3.18533 4.99976 3.28266 5.15643L6.61599 10.4898C6.71333 10.6458 6.66599 10.8518 6.50999 10.9491C6.45533 10.9831 6.39399 10.9998 6.33333 10.9998Z" fill="#F8F8F8" />
  <path d="M2.99999 10.9998C2.93999 10.9998 2.87866 10.9838 2.82333 10.9491C2.66733 10.8518 2.61999 10.6458 2.71733 10.4898L6.05066 5.15643C6.14799 4.99976 6.35333 4.95243 6.50999 5.05043C6.66599 5.14776 6.71333 5.35309 6.61599 5.50976L3.28266 10.8431C3.21933 10.9444 3.11066 10.9998 2.99999 10.9998Z" fill="#F8F8F8" />
  <path d="M11.6666 14.333C11.4826 14.333 11.3333 14.1837 11.3333 13.9997V1.99972C11.3333 1.81572 11.4826 1.66638 11.6666 1.66638C11.8506 1.66638 11.9999 1.81505 11.9999 1.99972V13.9997C11.9999 14.1837 11.8506 14.333 11.6666 14.333Z" fill="#F8F8F8" />
  <path d="M15.6667 12.333H9.00008C8.81608 12.333 8.66675 12.1837 8.66675 11.9997C8.66675 11.8157 8.81608 11.6664 9.00008 11.6664H15.6667C15.8507 11.6664 16.0001 11.8157 16.0001 11.9997C16.0001 12.1837 15.8507 12.333 15.6667 12.333Z" fill="#F8F8F8" />
  <path d="M15.6667 10.333H9.00008C8.81608 10.333 8.66675 10.1837 8.66675 9.99972C8.66675 9.81572 8.81608 9.66638 9.00008 9.66638H15.6667C15.8507 9.66638 16.0001 9.81572 16.0001 9.99972C16.0001 10.1837 15.8507 10.333 15.6667 10.333Z" fill="#F8F8F8" />
  <path d="M15.6667 8.33305H9.00008C8.81608 8.33305 8.66675 8.18372 8.66675 7.99972C8.66675 7.81572 8.81608 7.66638 9.00008 7.66638H15.6667C15.8507 7.66638 16.0001 7.81572 16.0001 7.99972C16.0001 8.18372 15.8507 8.33305 15.6667 8.33305Z" fill="#F8F8F8" />
  <path d="M15.6667 6.33305H9.00008C8.81608 6.33305 8.66675 6.18372 8.66675 5.99972C8.66675 5.81572 8.81608 5.66638 9.00008 5.66638H15.6667C15.8507 5.66638 16.0001 5.81505 16.0001 5.99972C16.0001 6.18438 15.8507 6.33305 15.6667 6.33305Z" fill="#F8F8F8" />
  <path d="M15.6667 4.33305H9.00008C8.81608 4.33305 8.66675 4.18372 8.66675 3.99972C8.66675 3.81572 8.81608 3.66638 9.00008 3.66638H15.6667C15.8507 3.66638 16.0001 3.81505 16.0001 3.99972C16.0001 4.18438 15.8507 4.33305 15.6667 4.33305Z" fill="#F8F8F8" />
</svg>