<svg width="16" height="16" viewBox="0 0 16 16" fill="none" xmlns="http://www.w3.org/2000/svg">
<path d="M8 10C8.55556 10 9.02778 9.80556 9.41667 9.41667C9.80556 9.02778 10 8.55556 10 8C10 7.44444 9.80556 6.97222 9.41667 6.58333C9.02778 6.19444 8.55556 6 8 6C7.44444 6 6.97222 6.19444 6.58333 6.58333C6.19444 6.97222 6 7.44444 6 8C6 8.55556 6.19444 9.02778 6.58333 9.41667C6.97222 9.80556 7.44444 10 8 10ZM8 10.6667C7.25727 10.6667 6.62714 10.4079 6.10962 9.89038C5.59209 9.37286 5.33333 8.74273 5.33333 8C5.33333 7.25727 5.59209 6.62714 6.10962 6.10962C6.62714 5.5921 7.25727 5.33333 8 5.33333C8.74273 5.33333 9.37286 5.5921 9.89038 6.10962C10.4079 6.62714 10.6667 7.25727 10.6667 8C10.6667 8.74273 10.4079 9.37286 9.89038 9.89038C9.37286 10.4079 8.74273 10.6667 8 10.6667ZM1.33333 8.33333C1.23889 8.33333 1.15972 8.30134 1.09583 8.23737C1.03194 8.1734 1 8.09413 1 7.99955C1 7.90497 1.03194 7.82585 1.09583 7.76218C1.15972 7.69851 1.23889 7.66667 1.33333 7.66667H3C3.09444 7.66667 3.17361 7.69866 3.2375 7.76263C3.30139 7.8266 3.33333 7.90587 3.33333 8.00045C3.33333 8.09503 3.30139 8.17415 3.2375 8.23782C3.17361 8.3015 3.09444 8.33333 3 8.33333H1.33333ZM13 8.33333C12.9056 8.33333 12.8264 8.30134 12.7625 8.23737C12.6986 8.1734 12.6667 8.09413 12.6667 7.99955C12.6667 7.90497 12.6986 7.82585 12.7625 7.76218C12.8264 7.69851 12.9056 7.66667 13 7.66667H14.6667C14.7611 7.66667 14.8403 7.69866 14.9042 7.76263C14.9681 7.8266 15 7.90587 15 8.00045C15 8.09503 14.9681 8.17415 14.9042 8.23782C14.8403 8.3015 14.7611 8.33333 14.6667 8.33333H13ZM7.99955 3.33333C7.90497 3.33333 7.82585 3.30139 7.76218 3.2375C7.69851 3.17361 7.66667 3.09444 7.66667 3V1.33333C7.66667 1.23889 7.69866 1.15972 7.76263 1.09583C7.8266 1.03194 7.90587 1 8.00045 1C8.09503 1 8.17415 1.03194 8.23782 1.09583C8.3015 1.15972 8.33333 1.23889 8.33333 1.33333V3C8.33333 3.09444 8.30134 3.17361 8.23737 3.2375C8.1734 3.30139 8.09413 3.33333 7.99955 3.33333ZM7.99955 15C7.90497 15 7.82585 14.9681 7.76218 14.9042C7.69851 14.8403 7.66667 14.7611 7.66667 14.6667V13C7.66667 12.9056 7.69866 12.8264 7.76263 12.7625C7.8266 12.6986 7.90587 12.6667 8.00045 12.6667C8.09503 12.6667 8.17415 12.6986 8.23782 12.7625C8.3015 12.8264 8.33333 12.9056 8.33333 13V14.6667C8.33333 14.7611 8.30134 14.8403 8.23737 14.9042C8.1734 14.9681 8.09413 15 7.99955 15ZM4.24102 4.68718L3.28077 3.75642C3.21581 3.69402 3.18397 3.61752 3.18525 3.52692C3.18654 3.43632 3.21968 3.35427 3.28467 3.28077C3.35557 3.20727 3.43418 3.17052 3.52052 3.17052C3.60684 3.17052 3.68547 3.20727 3.75642 3.28077L4.7 4.2282C4.77094 4.30171 4.80642 4.38034 4.80642 4.4641C4.80642 4.54787 4.77308 4.6265 4.70642 4.7C4.63975 4.7735 4.56389 4.80747 4.47885 4.80192C4.39381 4.79636 4.31453 4.75812 4.24102 4.68718ZM12.2436 12.7192L11.3 11.7718C11.2291 11.6983 11.1936 11.619 11.1936 11.534C11.1936 11.4489 11.2291 11.3709 11.3 11.3C11.3581 11.2265 11.4308 11.1925 11.518 11.1981C11.6051 11.2036 11.6855 11.2419 11.759 11.3128L12.7192 12.2436C12.7842 12.306 12.816 12.3825 12.8148 12.4731C12.8135 12.5637 12.7803 12.6457 12.7153 12.7192C12.6444 12.7927 12.5658 12.8295 12.4795 12.8295C12.3932 12.8295 12.3145 12.7927 12.2436 12.7192ZM11.3 4.70642C11.2265 4.63975 11.1925 4.56389 11.1981 4.47885C11.2036 4.39381 11.2419 4.31453 11.3128 4.24102L12.2436 3.28077C12.306 3.21581 12.3825 3.18397 12.4731 3.18525C12.5637 3.18654 12.6457 3.21968 12.7192 3.28467C12.7927 3.35557 12.8295 3.43418 12.8295 3.52052C12.8295 3.60684 12.7927 3.68547 12.7192 3.75642L11.7718 4.7C11.6983 4.77094 11.6197 4.80642 11.5359 4.80642C11.4521 4.80642 11.3735 4.77308 11.3 4.70642ZM3.28077 12.722C3.20727 12.6467 3.17052 12.5658 3.17052 12.4795C3.17052 12.3932 3.20727 12.3145 3.28077 12.2436L4.2282 11.3C4.30171 11.2291 4.38098 11.1936 4.46602 11.1936C4.55106 11.1936 4.62906 11.2291 4.7 11.3C4.76496 11.3581 4.79466 11.4308 4.7891 11.518C4.78354 11.6051 4.74957 11.6855 4.68718 11.759L3.75642 12.7192C3.68547 12.7927 3.60684 12.8288 3.52052 12.8276C3.43418 12.8263 3.35427 12.7911 3.28077 12.722Z" fill="white"/>
</svg>
