<svg xmlns="http://www.w3.org/2000/svg" width="18" height="18" viewBox="0 0 18 18" fill="none">
  <path d="M9.05762 14.25C7.59199 14.25 6.35059 13.7416 5.3334 12.7249C4.31621 11.7081 3.80762 10.4673 3.80762 9.00229C3.80762 7.5373 4.31621 6.29567 5.3334 5.27739C6.35059 4.25913 7.59199 3.75 9.05762 3.75C9.94897 3.75 10.7836 3.96177 11.5615 4.38532C12.3393 4.80889 12.9663 5.39999 13.4422 6.15864V3.75H14.1922V7.67308H10.2691V6.92308H13.0441C12.6538 6.17501 12.1045 5.58414 11.3963 5.15048C10.6881 4.71683 9.90858 4.5 9.05762 4.5C7.80762 4.5 6.74512 4.9375 5.87012 5.8125C4.99512 6.6875 4.55762 7.75 4.55762 9C4.55762 10.25 4.99512 11.3125 5.87012 12.1875C6.74512 13.0625 7.80762 13.5 9.05762 13.5C10.0201 13.5 10.8889 13.225 11.6639 12.675C12.4389 12.125 12.9826 11.4 13.2951 10.5H14.0913C13.7605 11.6231 13.1321 12.5288 12.2062 13.2173C11.2802 13.9058 10.2307 14.25 9.05762 14.25Z" fill="white" />
</svg>